<svg xmlns="http://www.w3.org/2000/svg" viewBox="0 0 816.22804 200.0002">
  <g transform="translate(235.00103,-198.50005)">
    <g transform="matrix(2,0,0,2,-318.25123,1.5001492)">
      <path d="M 81.6253,98.49995 61.625,148.5 81.6253,198.50005 H 121.625 L 141.6253,148.5 121.625,98.49995 Z m 19.9999,15.00013 A 25,35 0 0 1 126.6251,148.5 25,35 0 0 1 101.6252,183.49993 25,35 0 0 1 76.6251,148.5 25,35 0 0 1 101.6252,113.50008 Z" />
      <path d="m 95.3476,117.49983 a 23.777694,31 0 0 0 -7.063,1.3994 A 23.777694,31 0 0 1 105,148.5 23.777694,31 0 0 1 88.2851,178.10077 23.777694,31 0 0 0 95.3476,179.50017 23.777694,31 0 0 0 119.125,148.5 23.777694,31 0 0 0 95.3476,117.49983 Z" />
      <path d="M 61.6255,98.500205 41.6251,148.49975 61.6255,198.4998 H 74.1249 L 54.1251,148.49974 74.1249,98.500205 Z" />
    </g>
    <path d="M 11.229474,277.81412 V 229.8028 h 16.507483 v 48.01132 z m -9.2985189,11.0426 V 276.27775 H 36.930999 v 12.57897 z m 0,-57.42153 V 218.85623 H 36.930999 v 12.57896 z m 55.4740389,57.42153 v -70.00049 h 18.805994 l 8.671652,33.41587 1.253733,5.0892 h 0.522389 v -38.50507 h 15.358228 v 70.00049 H 82.897563 l -8.671652,-33.41588 -0.9403,-4.22499 h -0.522388 v 37.64087 z m 66.235076,0 v -70.00049 h 18.28361 q 6.58209,0 11.38807,1.92045 4.80598,1.82443 7.94031,5.37727 3.23881,3.55283 4.80597,8.64204 1.56717,4.99317 1.56717,11.23464 v 15.65169 q 0,9.3142 -3.23881,15.36362 -3.23881,6.04942 -8.98509,8.9301 -5.6418,2.88068 -13.47762,2.88068 z m 16.403,-10.1784 -2.50746,-2.40057 h 6.26867 q 2.82089,0 4.38806,-1.24829 1.67165,-1.2483 2.40298,-3.55284 0.73135,-2.30454 0.73135,-5.28125 v -24.6778 q 0,-3.55284 -0.9403,-5.76136 -0.83582,-2.30455 -2.50746,-3.26477 -1.56717,-1.05625 -4.07463,-1.05625 h -5.95524 l 2.19403,-2.1125 z m 69.78744,11.0426 q -5.01493,0 -9.08956,-1.44033 -4.07464,-1.53637 -7,-4.225 -2.82091,-2.68864 -4.49255,-6.33749 -1.56717,-3.74488 -1.56717,-8.44999 v -50.41188 h 16.50749 v 52.62039 q 0,1.72841 0.62686,3.07273 0.73135,1.2483 1.98508,1.92045 1.25373,0.67216 3.02985,0.67216 1.77613,0 3.02986,-0.67216 1.25373,-0.67215 1.8806,-1.92045 0.73134,-1.34432 0.73134,-3.07273 v -52.62039 h 16.50748 v 50.41188 q 0,6.14544 -2.82089,10.75453 -2.71643,4.60909 -7.73136,7.20169 -4.91046,2.49659 -11.59703,2.49659 z m 62.78749,0 q -6.68658,0 -11.38807,-2.59261 -4.59703,-2.68863 -6.89554,-7.68181 -2.2985,-4.99318 -2.40298,-12.38692 h 15.56718 q -0.10447,3.74488 0.31343,6.04943 0.52239,2.30454 1.67165,3.36079 1.14925,0.96022 3.02985,0.96022 1.14926,0 1.98507,-0.38408 0.9403,-0.3841 1.4627,-1.05625 0.62686,-0.76818 0.9403,-1.72841 0.31343,-0.96023 0.31343,-2.20852 0,-2.49659 -0.9403,-4.225 -0.9403,-1.82443 -2.40299,-3.26476 -1.46269,-1.44035 -3.34328,-2.68864 l -6.89554,-5.37727 q -3.55224,-2.68862 -6.26866,-5.5693 -2.61195,-2.88068 -4.07463,-6.3375 -1.46269,-3.45682 -1.46269,-7.77783 0,-4.225 1.35821,-7.68181 1.46268,-3.45682 4.17911,-5.9534 2.8209,-2.49659 6.58209,-3.8409 3.76121,-1.34433 8.35822,-1.34433 6.79106,0 11.49255,2.59262 4.70151,2.59261 7.10449,7.48976 2.40299,4.80113 2.50747,11.81078 h -15.35823 q 0,-3.36079 -0.52239,-5.47329 -0.41791,-2.1125 -1.56716,-3.07272 -1.04478,-1.05625 -3.23881,-1.05625 -1.4627,0 -2.50747,0.67216 -1.04478,0.57613 -1.56716,1.7284 -0.41792,1.05626 -0.41792,2.59261 0,2.01648 0.83582,3.64887 0.9403,1.53636 2.61195,2.9767 1.67164,1.34432 3.65672,2.88067 l 5.53731,4.12897 q 4.17911,3.07274 7.00002,6.43352 2.92538,3.3608 4.38806,7.2017 1.56717,3.74489 1.56717,8.35396 0,4.51307 -1.56717,8.06591 -1.46268,3.45681 -4.38806,5.85738 -2.82091,2.40056 -6.68657,3.64886 -3.86568,1.24829 -8.56718,1.24829 z m 49.30984,-0.8642 v -57.51755 h -11.91046 v -12.48294 h 40.22393 v 12.48294 h -11.80598 v 57.51755 z m 47.84713,0 v -70.00049 h 22.35823 q 6.68658,0 11.2836,2.68863 4.7015,2.68864 7.00001,7.58579 2.40298,4.89715 2.40298,11.52271 0,4.32102 -1.25373,7.96988 -1.14925,3.55284 -3.44776,6.24147 -2.19404,2.59261 -5.53733,4.12897 v -0.38408 l 0.31344,-1.15228 10.86568,31.3994 h -17.44778 l -7.73135,-26.11815 h -3.97016 v -12.19488 h 4.38807 q 3.34328,0 4.91045,-2.01647 1.67165,-2.1125 1.67165,-5.47329 v -4.60909 q 0,-3.55283 -1.77612,-5.28124 -1.77613,-1.72841 -4.80598,-1.72841 h -2.82089 v 57.42153 z m 71.87704,-11.0426 V 229.8028 h 16.50749 v 48.01132 z m -9.29852,11.0426 v -12.57897 h 35.00005 v 12.57897 z m 0,-57.42153 v -12.57896 h 35.00005 v 12.57896 z m 53.59347,57.42153 11.17912,-70.00049 h 23.61196 l 11.38808,70.00049 h -16.50748 l -4.80598,-41.48177 -1.56717,-16.22783 h -0.62686 l -1.35821,16.22783 -4.80597,41.48177 z m 16.19406,-11.9068 1.14925,-11.13863 h 11.49255 l 1.14926,11.13863 z m 49.3097,11.9068 v -70.00049 h 16.40301 v 57.42152 h 13.37315 v 12.57897 z" />
    <path d="m 383.50362,378.33844 v -24.00565 l -16.9254,-45.99484 h 16.29853 l 5.53732,18.43634 2.71643,11.04261 h 1.04477 l 2.92538,-11.23465 5.43284,-18.2443 h 16.50749 l -17.02988,45.99484 v 24.00565 z" />
    <path d="m 321.92785,378.33844 v -57.51755 h -11.91047 v -12.48294 h 40.22393 v 12.48294 h -11.80598 v 57.51755 z" />
    <path d="m 255.3514,378.33844 v -70.00049 h 34.16423 v 12.57896 H 271.7544 v 44.74655 h 18.38809 v 12.67498 z m 14.83584,-29.47895 v -12.38691 h 13.47763 v 12.38691 z" />
    <path d="m 201.62899,367.29583 v -48.0113 h 16.50749 v 48.0113 z m -9.2985,11.04261 v -12.57896 h 35.00003 v 12.57896 z m 0,-57.42153 v -12.57896 h 35.00003 v 12.57896 z" />
    <path d="m 144.87191,378.33844 q -4.80597,0 -8.88061,-1.53637 -3.97015,-1.53636 -6.89553,-4.41704 -2.92538,-2.88067 -4.59702,-7.2017 -1.56717,-4.32101 -1.56717,-9.89032 v -25.63805 q 0,-7.48976 2.8209,-12.57896 2.92538,-5.18522 7.94031,-7.77783 5.01493,-2.68863 11.70151,-2.68863 7.62687,0 12.53733,2.88068 5.01493,2.88067 7.41792,8.44999 2.40298,5.56931 2.40298,13.92327 h -15.88061 q 0,-4.41703 -0.41792,-7.20169 -0.41791,-2.78466 -1.77611,-4.12898 -1.35822,-1.34431 -4.28359,-1.34431 -1.8806,0 -3.23881,0.8642 -1.25374,0.76819 -1.98508,2.30454 -0.73134,1.53637 -0.73134,3.55284 v 33.31985 q 0,2.1125 0.73134,3.55284 0.73134,1.44034 2.08956,2.20852 1.35821,0.76818 3.13433,0.76818 2.92537,0 4.28359,-1.34432 1.3582,-1.34431 1.77611,-4.12897 0.41792,-2.78466 0.41792,-7.29772 h 15.88061 q 0,8.25795 -2.40298,13.92328 -2.40299,5.56932 -7.5224,8.54602 -5.01493,2.88068 -12.95524,2.88068 z" />
    <path d="m 79.717863,378.33844 q -5.014932,0 -9.194041,-1.53637 -4.074632,-1.53636 -7.104487,-4.51307 -2.925377,-2.9767 -4.597021,-7.20169 -1.567166,-4.32102 -1.567166,-9.69828 v -25.83009 q 0,-7.29772 2.820899,-12.38692 2.820899,-5.08919 7.835831,-7.77783 5.11941,-2.78465 11.805985,-2.78465 5.119409,0 9.194041,1.53635 4.179109,1.53637 7.104485,4.51307 3.029861,2.9767 4.597011,7.29772 1.67165,4.22499 1.67165,9.60226 v 25.83009 q 0,7.29771 -2.82089,12.38692 -2.820901,5.08919 -7.940313,7.87385 -5.014931,2.68864 -11.805984,2.68864 z m 0,-12.57897 q 2.089555,0 3.343287,-0.76818 1.253733,-0.76818 1.8806,-2.01647 0.731344,-1.34433 0.731344,-3.07273 v -34.85621 q 0,-1.72841 -0.731344,-2.9767 -0.626867,-1.34432 -1.8806,-2.1125 -1.253732,-0.76818 -3.343287,-0.76818 -1.776122,0 -3.134332,0.76818 -1.358211,0.76818 -2.089555,2.1125 -0.731344,1.24829 -0.731344,2.9767 v 34.85621 q 0,1.7284 0.731344,3.07273 0.731344,1.24829 2.089555,2.01647 1.35821,0.76818 3.134332,0.76818 z" />
    <path d="m 19.326496,378.33844 q -6.686575,0 -11.3880739,-2.59262 -4.5970203,-2.68863 -6.8955305,-7.68181 -2.2985103,-4.99317 -2.402988,-12.38692 H 14.207087 q -0.104478,3.74489 0.313433,6.04943 0.522389,2.30454 1.671644,3.36079 1.149255,0.96023 3.029854,0.96023 1.149255,0 1.985077,-0.38409 0.9403,-0.38409 1.462689,-1.05626 0.626866,-0.76817 0.940299,-1.7284 0.313434,-0.96022 0.313434,-2.20852 0,-2.49658 -0.9403,-4.22499 -0.9403,-1.82443 -2.402988,-3.26477 -1.462688,-1.44034 -3.343288,-2.68863 l -6.895531,-5.37727 q -3.5522428,-2.68864 -6.268664,-5.56932 -2.6119435,-2.88068 -4.07463178,-6.33749 -1.46268832,-3.45681 -1.46268832,-7.77783 0,-4.225 1.35821062,-7.68181 1.46268828,-3.45681 4.17910948,-5.95341 2.820899,-2.49658 6.582097,-3.8409 3.761199,-1.34431 8.35822,-1.34431 6.791053,0 11.492552,2.59261 4.701498,2.5926 7.104486,7.48976 2.402988,4.80113 2.507466,11.81079 H 24.759339 q 0,-3.3608 -0.522389,-5.4733 -0.417911,-2.11249 -1.567166,-3.07272 -1.044778,-1.05625 -3.23881,-1.05625 -1.462689,0 -2.507466,0.67216 -1.044777,0.57613 -1.567166,1.7284 -0.417911,1.05625 -0.417911,2.59262 0,2.01647 0.835822,3.64886 0.9403,1.53636 2.611943,2.9767 1.671644,1.34431 3.656721,2.88068 l 5.537321,4.12897 q 4.17911,3.07272 7.000009,6.43352 2.925376,3.36078 4.388065,7.20169 1.567166,3.74488 1.567166,8.35397 0,4.51306 -1.567166,8.0659 -1.462689,3.45681 -4.388065,5.85738 -2.820899,2.40056 -6.686576,3.64886 -3.865677,1.2483 -8.567175,1.2483 z" />
  </g>
</svg>
